<?xml version="1.0" encoding="utf-8"?>
<!-- Generator: Adobe Illustrator 19.0.0, SVG Export Plug-In . SVG Version: 6.00 Build 0)  -->
<svg version="1.1" id="Layer_1" xmlns="http://www.w3.org/2000/svg" xmlns:xlink="http://www.w3.org/1999/xlink" x="0px" y="0px"
	 viewBox="0 0 500 500" style="enable-background:new 0 0 500 500;" xml:space="preserve">
<style type="text/css">
	.st0{fill:#EE3133;}
</style>
<g id="XMLID_1_">
	<path id="XMLID_5_" d="M283.3,169.1c-2.6,0-5.1,0.6-7.3,1.6c-3.3,2.2-7.2,3.3-10.3,5.5c-5.6,6.7-10.7,13.7-11.7,22
		c-1.5-6.7,0.3-14.3-1.1-21.5c-0.8-0.7-1-1.7-2-2.4c-1.8-0.6-4-1.3-6-0.4c-1.8,0.8-1.4,3.5-3.8,3.9c-7.1,6.5,1.1,14.8-1,22.3
		c-6.9,0.8-0.7-6.4-4.5-8.5c1.1-3.3,0.7-7.7,0-11.1c-1.6-1.9-4-4.5-6.7-2.9c-1.6,1.5-1.8,3.5-3.2,5c-5.5-0.3-0.8,7.8-6.4,5.7
		c-2.6,3.2-7.7,1.3-10.8,3.5c-1.9-2.1,0.2-4.5-0.7-6.9c-2.8-6.4-7.8,0.6-11.3,0.4c-2.9,1.1-3.4,4.4-3.4,7.1
		c-5.3,1.8-11.3-1.5-16.7,0.9c-2.8,0.6-3.6,3.3-4.2,5.4c-1.4,3,1.1,5.3,2.9,7.5c2.8,2.1,6.2,2.7,9.6,3.1c2.4,0.9,6.1-0.7,8.1,1.2
		c0.2,6.1-1.6,14.8,2.6,20c2.5,1.5,5.6,1.4,8.1-0.3c8.2-4.5,3.1-14,4.7-21c0.1-0.3,0.4-0.4,0.6-0.7c2.2,0.6,4.1-0.6,5.9-1.2
		c5.9-1.5,0.7,5.9,5,7.7c5.3,1.9,2.4,8.9,4.4,13c1.8,2.6,5.3,3.5,8.2,2.9c1.2-0.6,2.2-1.8,1.7-3.2c4-3,2.3-9,2.4-13.3
		c1.3,0.9,3.2-0.4,4.2,0.9c-0.7,4.8,0.2,8.4,1.2,12.8c1.3,2.3,3.7,1.8,5.9,2.3c2.1-0.7,4.4-1.5,5.7-2.9c0.7-1.5,2.4-3.6,0.6-5
		c3-5.2-3.8-10.7,0.9-15.6c0.5,1.5,0.5,2.9,0.9,4.4c4.5,5.5,10.1,13.1,18.4,13.7c4.3,1.2,8.6,1.5,12.8,0.6c2.8,0.2,4.5-1.9,6.9-2.4
		c5.4-3.1,13.5-6.9,11.8-14.6c1.5-1.3,1.9-3.1,2.1-5c-1-1.3-2.6-3-4.2-3.3c-3.4-1.4-6.2,2.4-7.7,4.4c-4.9,0.6-8.1,5.1-13.1,4.4
		c0.9-1.1,2.3-1,2.8-2.3c4.2-1.6,7.2-5.9,8.7-9.7c-0.8-6.8,2.6-16.8-2.6-23c-2.4-1.6-3.8-2.9-6-4.7
		C285.1,169.2,284.2,169.1,283.3,169.1z M278.5,188c1.1,0.8,4.3,1.3,2.7,3.4c-3.1-0.9-5.7,5.4-7.3,1.3
		C276.5,192.1,275.9,188.5,278.5,188z"/>
	<path id="XMLID_8_" class="st0" d="M282.4,170.5c-8.7,0.2-12.3,9.9-16.7,15.4c-0.9,4.9-6.4,9.6-2.7,14.6c0.7,2.9,0.4,6.2,1.4,9.1
		c4.3,3.5,6.1,9.9,13.1,8.5c4.6,2.3,9.6-0.4,14.1-1.2c4.7-4.6,13.7-6.4,14.2-13.3c-1.1-0.5-2.3-1.7-3.7-1.9c-2.3,0.7-2.7,3-4.9,4.6
		c-6.7,0-10.1,6.4-17,5.8c-2.6-1.2-6.4-0.9-8.2-3.9c-0.2-1.4-1.5-4.4,0.9-5.2c9.4,1.8,14.9-6.6,19.7-12.1c0.2-3.5,0.9-6.8,0.4-10.4
		c-0.7-2.1-1.8-4.3-2.1-6.2c-2.1-0.1-3.6-2.8-5.5-3.6C284.2,170.6,283.3,170.5,282.4,170.5z M282.2,178.1c1.4-0.1,2.7,0.6,3.8,2.3
		c3.1,5.1-2.9,8.8-4.4,13.3c-3.5-0.1-6.7,4.5-10.2,1c-1-3.7,2.8-7,3.3-11C276,181.8,279.2,178.3,282.2,178.1z"/>
	<path id="XMLID_9_" class="st0" d="M251.1,177.2c1.7,8.3-2.4,17.7,3,24.4c1.1,2.1-1.4,3.8-1.9,5.6c-2,4.6,1,8.6,0.8,13.3
		c-1,1.9-3,1.7-5.1,1.5c-2.1-1-0.6-4.2-1.6-5.9c-1.6-2.7,1.7-8.7-4-8.5c-1.5,1.3-4,0.5-5.9,0.9c-4.8,5,1.4,11.2-3.1,16.4
		c-1.6,0.5-2.9-0.7-3.7-1.9c0.2-4.5-0.9-8.5-1.8-12.5c-1.3-1.5-5.5-1.8-3.5-5.1c0.5-3,5-2.9,5-6.1c1.1-6.3,0-12.5,0.1-18.6
		c0.9-1.3,2.1-1.7,3.6-1.6c0.1,3.6,3.2,7.3,0.7,10.8c2,3.1,0.2,6.5,1.4,9.9c1.6,2.7,5.7,2,8.4,1.5c0.9-0.6,1.8-0.8,2.6-1.8
		c-1.9-6.4-0.2-15.4-1.1-22.8C246.3,174.4,250.1,174.8,251.1,177.2z"/>
	<path id="XMLID_10_" class="st0" d="M206.1,189.7c-1.2,0.9,0.8,1.7-0.2,2.5c4.7,3.6,9.9-1.2,14.9-1.8c1.7,1.2,1.4,3.8,1,5.4
		c-3.5,4-8.8,6.1-14.4,6.4c-2.7,1.3-2.3,4.2-1.6,6.3c1.1,4.9,0.1,11.1,0.1,15.9c-0.5,1.9-2.5,2-3.8,3c-2.6-1.2-3.2-4.3-2.4-6.8
		c0.2-5.8,0.1-9.5-0.5-15.3c-3.2-4.4-9.8-1.1-14.2-3.3c-2.9,0.8-5.1-1-6.7-2.6c-0.9-1.3,0.4-2.5,0.7-3.8c1.3-1.1,3.4-1.6,5.1-0.9
		c5-0.9,12.2,2.9,15.1-2.6c0.5-2.1-1.6-5.8,2.1-6.3c1.4-0.5,3-2.5,4.4-1.3C205.2,186.6,206.5,187.4,206.1,189.7L206.1,189.7z"/>
	<path id="XMLID_14_" d="M130.7,207.6c-17,2.2-30.1,10.6-44.3,18.6c-2.9,3.6-7.3,4.9-9.2,9.3c-5.4,3.7-7,9.8-8.9,15.2
		c-4.2,16.2,11.7,25.5,23.1,33.1c4.9,4.9,12.1,7.3,16.9,12c6.9,3.5,14.3,5.4,20.8,9.7c-0.3,0.3-0.7,0.7-1.1,1c-5.3,0.5-12,0-18-0.1
		c-6.3,2.1-12.9,0.5-18.7-1.8c-4-0.8-8.3,0.6-10.8,3.3c-4-0.2-6.6,2.5-8.2,5c-1,2.8,0.4,5.8,1.1,8.4c1.2,2.6,4.1,3.9,6.7,4.5
		c12.5,5.7,25.7,1.8,39.4,4.3c5.2,1.6,10.7,0.8,15.6-1.3c6.4-2.7,15.4-5.9,15.5-14.1c4.1-1,2.1-11.5,6.9-5.7
		c2.7,0.7,5.9,2.5,8.9,0.6c1.4-1.9,4.2-3,3-5.5c3.6-1.2,3.1-4.9,5.2-7.1c1.9,2.4,3.4,5.5,5.7,7.4c2.9,0,4.8,2.4,8.5,1.4
		c2.5-1.7,4.3-4,4.6-6.8c3.5-1.7,1.6-6.4,4.5-8.5c0.6,2.7,4.1,3,5.9,4.7c6.7-0.3,7.5-7.3,10.3-11.4c0.2,6.6-4.5,15.3,0.7,21.2
		c2.4,2.2,5.2,3.4,8.8,2.7c0.6-1,3-0.3,2.2-2.1c3.1-1.8,1.2-5.4,2.6-7.7c1.9-3.6,0.2-8.4,2.5-11.9c9.3,0.6,2.4,10.2,6.8,14.4
		c1.4,2.1,4.5,3.2,7.7,2.4c6.8-1.7,5.4-9.3,6.8-14.4c4.4,0.5,8.5-1.4,12.7-1.9c1.8-0.7,3.1-2.4,5.4-2c4.2-2.6,2.9-7.7,4-11.8
		c1.9,2.7,4,6,8,6.9c1,1.3,1.3,3.2,0.8,4.2c-2.2,0.8-4.7,1.3-6.8,2.3c-0.4,0.4-1,0.9-0.7,1.5c-3.3,0.7-6.3,3-7.1,6.2
		c0.3,2.6-0.5,6.4,2.4,8.1c6.7,2.8,14.8,4.1,21.7,0.7c4.1-3.3,13-4.5,11.3-11.8c2.4,3.4,2.8,7.2,6.6,9.7c4,4.7,9.6,3.9,15,2.7
		c1.7-0.6,2.1-1.7,3.9-1.9c4.3-3.2,5.5-7.7,9.2-10.7c1.5-1.6,1.2-4,2.7-5.3c1.7,5-2.6,8.6-1.3,13.9c0.4,2,2.1,3.3,4.1,3.7
		c2.4-0.7,5.8-1.4,6.1-4.3c3.6-1.9,5-5.3,7.5-7.6c2.4,3.2,3.9,6.8,7.2,9.1c5.8,0.5,6.8-5.6,11.2-8.3c3.6-4.2,2.9-11.4,2.2-17.2
		c0.3-0.3,0.4-0.4,0.7-0.7c1.7,7.7,13.4,7.7,12.6,15.6c-0.8,2.9-4.1,3.5-6.4,4.7c-2.2,1.1-6.4,0.5-6.6,4c-3.1-0.5-5.2,1.9-6.7,4.1
		c0.1,2.4,1.1,4.6,2.4,6.4c3.8,3.5,9.2,3.5,14.4,2.7c9.3-3.6,19.9-7.1,22.4-17.9c-0.7-2.1,0.6-4.3,1.9-6.3c0.7-3.1,1.9-6.7-1.4-8.9
		c0.6-5-5.5-4.3-7.9-7.4c-3-2.1-7.1-5.1-7.3-8.4c2.1-2.3,5.1-2.2,7.7-3.8c1.7-0.2,1.4,1.6,1.5,2.7c0.3,2.7,3.1,3.6,5.4,4.8
		c3.8,1.4,5.4-2.7,7.9-4.5c-1-2.1,1.7-3.2-0.6-4.9c4.1-2.8,2.1-9.1,2.3-14c-2.3-2.1-5.2-5-8.6-5.9c-12.2-2-22.6,3.8-29.1,12.4
		c-1.7,3.3-3.9,6.5-5.1,10c-2.9-4.7-5.1-10.5-10.1-13.2c-1.7-0.4-2.7,0.7-3.9,1.6c-1.6,3.6-3.7,6.6-6.2,9.9
		c-1.5,3.9,2.8,5.9,4.7,8.8c0.5,1.4,0.9,3.6-0.2,4.8c-1.7-0.9-3.4-2.1-5.6-2.2c-2.3-4.5-6.7-0.6-10.2-0.7c-3.5,0.4-6,4.2-6.8,6.8
		c-1.2-2.3-0.8-5.2-2.7-7.2c-2.9-3.6-7.8-3.9-11.6-5.8c-1.3-2.2-5.1-1.3-6.9-1.9c-9.5,0.4-11.1,9.9-15.3,15.8
		c-2.2-2.4-4.5-4.8-6.8-7c-0.8-1.7-1.4-3.7-3.1-4.8c-0.1-2.9,4.1-1.8,5.4-2.6c4.2-1.4,9.4-0.3,13-2.9c0.4-1.3,0.8-3.4-0.8-4.4
		c-1.3-1.2,0.4-2.3,0.9-3.5c-0.6-3.5-1.8-7.2-5.1-9.2c-6-1.6-11,2.7-16.3,4.5c-2,1.6-4.3,2.3-6.9,2.6c-5.1,2.1-9.5,5.8-10.5,11.4
		c-2.6-5.2-6.2-11.2-12.6-13.7c-5.7-1.4-11.4,1.4-16.3,3.8c-8.1,3.9-8.2,12.9-7.4,20.3c0.9,3.7-5.1,2.7-7.1,5
		c-2.6-4.5-0.2-10-1.3-15.1c-1.3-2.3-3.8-4.6-6.7-4.7c-3-3.6-4.9,2.5-6.9,2.4c-0.2-0.4-0.9-1-1.8-0.7c-2.7,1.4-4.6,4.1-5.2,7.2
		c-2.4-2.1-1.3-6.2-4.6-8.2c-3.1-1.5-5.9-2.7-9.6-1.6c-2.3,1.3-2.7,5.1-6.2,3.2c-2.1,0.3-3.9,1.3-5.4,3.1c-4.7,8.8-4.3,19.5-7.4,29
		c-0.5,0.1-0.8-0.4-1.1-0.7c2.7-5.3,1.9-11.4,1.2-17.1c2.1-4.9-1.4-9.2-2-13.8c-1.3-2.9-4.6-4.2-7.8-3.8c-1.5-0.4-2.2,3.1-3.6,1.1
		c-1.8,0.7-3.5,1.6-5.1,3c-2,3.6-2.5,8.7-0.9,12.8c-0.3,9.7,0.6,17.3-2.4,26.1c-4.1-3.3-8.2-6.6-12.7-8.9c-10-3.4-18.1-11.5-28-14.9
		c0-0.3,0-0.4,0-0.7c-7.7-2.3-13.2-9.1-19.3-13.9c1.1-3.8-5.5-3.3-2.8-6.8c0.6-8.3,9.1-13.3,16.7-15.9c3.6,0.4,6-2,9.5-2.3
		c6.9-4,15.3-3.9,23.2-3.6c2.8,1.6,1,6,3.7,8.1c3.5,3.4,10,2,13.9,0.7c2.5-1.1,0.9-3.8,1.3-5.7c3.4-2.9,2-7.9,2-11.5
		c-0.8-4-4.3-8.3-8.3-9.3C146.1,207.6,138,208.3,130.7,207.6z M255.2,260.5c1.4,2.9,3.7,5.4,3.6,8.8c-1.9,0-8.2,2.5-5.6-2.1
		C254.4,265.2,253.4,262.3,255.2,260.5z M322.7,277.3c3.6,1.6,0.6,6.8,5,7.5c0.3,0.9-0.3,1.6-1,1.8c-2-0.1-4.1,0.4-5.8-0.2
		C319.9,283.1,320.4,279.6,322.7,277.3z"/>
	<path id="XMLID_15_" class="st0" d="M145.4,211.6c4.6,3.3,13,4.7,12.8,12.1c-0.1,2.8,1.3,6.9-2.2,8c-6.8,1.4-0.2-7.1-7.3-7.4
		c-13.1-6.6-29.2-0.7-41.7,3.5c-3.6,4.8-11.5,2.1-14.3,8.6c-5.6,1-6.4,6.9-7.2,11.2c1.1,3.7,1.1,8.5,4.8,10.3
		c1.4,5.2,7.8,7.9,10.9,12.1c2.8,1.3,5.8,3.9,9,4.9c12.8,7.8,27.3,13.6,39.6,22.9c-0.1,1.6,2,1.2,2.4,2.7c1.3,6.5-0.8,11.9-6,16
		c-4.5,2.6-9.6,1.1-13.4,4.7c-4.1,1.4-9.3-0.9-13.5,1.2c-6,0-10.9-2.1-16.8-1.9c-6.3-1.2-13.5-1.9-19.2-5.2c-1.9-1.5-1.2-4.8-1-6.9
		c1.9-1.9,6-2.1,9.1-1.6c4.5,1.4,9,2.6,14,2.2c8.5-2.2,17.1,1.9,24.7-1.9c2.8-0.1,5.9,1.2,8.1,0c2.3,0.6,3.5-1.3,5.4-1.2
		c2-1.5-0.4-2.9-1.2-4.1c-6.2-1-6.4-9.2-13.4-7.5c-8.3-5.9-17.8-8.9-26.1-13.9c-2.5-1.8-3.4-5.7-7.5-4.9c-3.6-1.8-5.2-5.9-9.1-7.1
		c-1.3-2.6-5.9-2.8-5.7-6c-2.7-2.3-2.4-6-4.7-8.5c-2.5-6,2.1-10.4,2.3-16c2.5-3.8,7.1-5.2,8.8-9.7c15.1-9.6,30.8-19,50.3-18.4
		C139.8,211.1,142.7,211,145.4,211.6L145.4,211.6z"/>
	<path id="XMLID_16_" class="st0" d="M414,240.2c7.6,1.6,3.5,8.8,4.9,13.2c-1.1,2.1-3.9,1.8-5.8,1.4c-1.5-2.8,1-5.8-2.6-7.5
		c-5,0.6-9.8,2.2-12.9,6.3c-3.3,2.6-1.8,6.8-4.1,9.8c3.4,5.9,9.6,8.7,15.1,12.9c0.9,3.6,5,6.6,2.6,10.7
		c-3.4,7.1-10.3,10.4-16.6,14.5c-4.9-0.5-9.4,4.5-13.6,0.5c-3.1-6.9,5.8-4.7,8.4-8c4.7-1.3,9.8-3,12.3-7.4c0.7-3.3-2.2-5.2-4.7-6.8
		c-4.6-1-5.1-6.5-10.2-7.3c-1.8-4.7-3.2-10-0.8-14.8c1.9-7.7,9.4-13.9,16.6-16.9c1.5-2.5,4.7-1.9,7.3-1.6
		C411,240.6,412.9,239.3,414,240.2z"/>
	<path id="XMLID_17_" class="st0" d="M308,246.3c1.4,1.1,0.6,3.2,1,4.7c-4.8,3.2-12.5,1.3-15.9,6.5c-4.2,0.7-0.6,4.6-2.6,7
		c2.9,5.6,8.3,9.4,11.5,14.9c1.2,3.5,0.3,7-0.4,10.7c-4.9,6.1-14.1,6.5-21.7,6c-2.8-1.8-2.5-5.4-2.1-8.3c4.3-3.4,11.3-1,15.2-5
		c-1-3.8-3.8-8-7.9-9.4c-3.4-5.7-7-12.9-2.2-19c5.3-4.4,10.7-7.9,16.9-10.7C302.8,243.7,306.8,242.8,308,246.3L308,246.3z"/>
	<path id="XMLID_20_" class="st0" d="M255.2,248c-2.7-0.1-3.3,2.6-5.9,3c-4.8,6.1-6.3,13.5-6.2,21.3c-1.8,1.4-4.2,1.6-6.5,2
		c-3.4,1.5,0.9,3.8-0.8,6.2c1.3,1.1,2.8,0.8,4.5,1c2.3,1.2,1.6,3.9,2.3,5.8c0.7,2.1,0.4,4.9,2.1,6.6c9.8,1.1,2.2-9.8,6.5-14.1
		c6.2,0.9,11.7-1.4,17.5-2.3c1.2-2.7,5.3-4.7,2.9-8c1.8-4.4-2.2-8.2-2.6-12.5c-3.2-4.4-6.9-9.2-13.1-8.8
		C255.6,248,255.4,248,255.2,248z M256.8,255.6c6.1-0.4,4.6,6.7,8.7,9.5c1.3,1.3,0.8,2.3,0.4,3.8c-1,2.3-4.1,1.5-6,2.2
		c-3,0.1-6,1.8-8.8,0.3c-1.3-3.1,2.2-5.8,0.8-9C253.8,260.3,253.5,256.4,256.8,255.6z"/>
	<path id="XMLID_21_" class="st0" d="M375.5,260.6c-0.6,9.4,4.3,23.6-6.9,28.9c-4.6,1.1-7.4-3.4-10.1-5.8c-1.9,2-1.9,5.1-3.9,7.3
		c-1.7,2.1-3.6,5.3-7.1,4.7c0.2-3.1,0-6.1,1.5-8.7c-1.2-3.7,0.2-7.4,1.2-10.7c-1.2-1-0.9-3.1-0.5-4.5c1-1.1,1.3-3.2,3.1-2.9
		c1.5,2.9,4.7,1.4,6.6,3.3c2.8,1.8,3.5,7.4,8.3,6.6c3-2.1-0.1-6.2,2.3-8.5c-1-4.5-1.3-9-4.8-12.3c0.5-0.6,0.2-1.4,0.4-2.2
		c-1.4-1.1-2.6-1.5-1.6-3.4c1.3-1.2,0.5-3.5,2.7-4.3C371.9,250.6,372.9,256.3,375.5,260.6L375.5,260.6z"/>
	<path id="XMLID_22_" class="st0" d="M170.5,259.7c0,4.8,4.2,9.1,1.3,13.8c2.4,3.8-0.8,7.9,0.4,11.7c-3.1,5,2.4,11.1-2.3,16.1
		c-2.1,1.1-3.9,0.8-6.2,0.5c-1.9-2.7-0.7-6.6-1.7-9.6c1.3-7,2.8-13,1.7-20.2c3.3-4.5-2.4-10.9,1.3-15.3
		C167.9,255.6,169.5,258,170.5,259.7L170.5,259.7z"/>
	<path id="XMLID_23_" class="st0" d="M203.1,259.9c1.2,5,3.8,9.4,5.3,14.4c0.6,0.3,0.9,1.4,1.8,0.9c2.4-1.9,1.8-4.9,2.3-7.7
		c2.9-3.2,3.5-7.4,6.6-10.7c2.6,0.4,5.6,1.6,6.7,4c0.7,6.2-0.8,11.6,2,17.2c1,6.4-1.1,11.6-1.2,18.4c-1.3,1.2-3.1,3.9-5.4,3
		c-1.4-1.5-2-3.8-1.3-5.8c2.1-5.6,1.4-11.2,1.2-17.1c-0.9-0.5-0.9-1.8-2.2-1.9c-3.2,0.5-3.8,4-5.7,6c-1.9,2.1-2.5,5.9-6.7,5.1
		c-4.6-1.7-2.7-8-6.9-10.1c0.1-1.9,0.9-4.8-1-6.2c-3.3,1.3-2.6,5.1-3.1,8.1c-3.1,2.9,2,6.1-1.1,9.1c0.7,3.3-0.2,8.2-3.3,10.5
		c-2.6-0.7-4.9-1-6.1-3.7c-0.3-7.8,2.2-14.7,2.6-22.2c1.8-1.9-0.1-3.9,0.8-5.9c2.2-3,2.8-7.5,6.7-8.9
		C198.4,256.2,201.5,257.2,203.1,259.9L203.1,259.9z"/>
	<path id="XMLID_26_" class="st0" d="M321.2,262.8c-0.3,0-0.5,0-0.8,0c-9.2,3.2-1.8,12.8-9.3,16.9c-0.9,5.1,0.4,10.1,3.9,13.7
		c2.9,4.1,8.7,2.1,13.7,2.4c2.8-1.7,4.9-2.8,7.4-4.9c3.7-3.7,3.1-10.5,1.3-14.9c-0.3-4.2-2.4-6.8-5.5-9.5
		C328.1,266.8,325.2,263,321.2,262.8z M326.3,273.2c1.8,0.1,3.5,1,4.4,2.7c0.8,1.7,1.7,3.8,1,5.9c-3.2,1.1-0.6,5.7-4.2,6.3
		c-3.1-0.7-8.6,2.3-9.2-2.1c-0.6-4.3,1.4-7.9,2.8-11.5C322.6,273.6,324.5,273.1,326.3,273.2z"/>
	<polygon id="XMLID_27_" class="st0" points="418.2,301.8 416,301.8 416,300.2 422.4,300.2 422.4,301.8 420.1,301.8 420.1,308.6 
		418.2,308.6 418.2,301.8 	"/>
	<path id="XMLID_28_" class="st0" d="M430.5,305.4c0-1-0.1-2.2-0.1-3.5h0c-0.3,1.1-0.6,2.3-0.9,3.3l-1,3.3H427l-0.9-3.2
		c-0.3-1-0.6-2.2-0.8-3.3h0c0,1.1-0.1,2.4-0.1,3.5l-0.2,3.2h-1.8l0.5-8.4h2.5l0.8,2.8c0.3,1,0.5,2,0.7,3h0.1c0.2-1,0.5-2.1,0.8-3
		l0.9-2.8h2.5l0.4,8.4h-1.8L430.5,305.4L430.5,305.4z"/>
</g>
</svg>
